<svg width="26" height="30" viewBox="0 0 26 30" fill="none" xmlns="http://www.w3.org/2000/svg">
<path d="M3.1808 2.5H5V27.5H3.1808C1.88938 27.5 1.875 27.3423 1.875 25.1042V4.89583C1.875 2.65766 1.88938 2.5 3.1808 2.5Z" fill="url(#paint0_linear_3516_1766)"/>
<path opacity="0.3" fill-rule="evenodd" clip-rule="evenodd" d="M16.0578 2.5H6.07143C3.77556 2.5 3.75 2.65766 3.75 4.89583V25.1042C3.75 27.3423 3.77556 27.5 6.07143 27.5H21.4286C23.7244 27.5 23.75 27.3423 23.75 25.1042V9.23753C23.75 8.79621 23.5557 8.37728 23.2187 8.09227L17.0265 2.85474C16.7557 2.62568 16.4125 2.5 16.0578 2.5ZM11.5052 19.3281C11.7448 19.5677 12.0443 19.6875 12.3437 19.6875C12.6432 19.6875 12.9427 19.5677 13.1823 19.3281L17.974 14.5365C18.4531 14.0573 18.4531 13.3385 17.974 12.8594C17.4948 12.3802 16.776 12.3802 16.2969 12.8594L12.3437 16.8125L10.7865 15.2552C10.3672 14.776 9.58854 14.776 9.10937 15.2552C8.63021 15.7344 8.63021 16.4531 9.10937 16.9323L11.5052 19.3281Z" fill="url(#paint1_linear_3516_1766)"/>
<path fill-rule="evenodd" clip-rule="evenodd" d="M12.3438 19.6875C12.0443 19.6875 11.7448 19.5677 11.5052 19.3281L9.10938 16.9323C8.63021 16.4531 8.63021 15.7344 9.10938 15.2552C9.58854 14.776 10.3672 14.776 10.7865 15.2552L12.3438 16.8125L16.2969 12.8594C16.776 12.3802 17.4948 12.3802 17.974 12.8594C18.4531 13.3385 18.4531 14.0573 17.974 14.5365L13.1823 19.3281C12.9427 19.5677 12.6432 19.6875 12.3438 19.6875Z" fill="url(#paint2_linear_3516_1766)"/>
<defs>
<linearGradient id="paint0_linear_3516_1766" x1="3.4375" y1="1.01485" x2="6.69454" y2="1.18175" gradientUnits="userSpaceOnUse">
<stop stop-color="#63CDA8"/>
<stop offset="1" stop-color="#39A680"/>
</linearGradient>
<linearGradient id="paint1_linear_3516_1766" x1="13.75" y1="1.01485" x2="32.6203" y2="7.20334" gradientUnits="userSpaceOnUse">
<stop stop-color="#63CDA8"/>
<stop offset="1" stop-color="#39A680"/>
</linearGradient>
<linearGradient id="paint2_linear_3516_1766" x1="13.5417" y1="12.073" x2="21.2525" y2="16.2876" gradientUnits="userSpaceOnUse">
<stop stop-color="#63CDA8"/>
<stop offset="1" stop-color="#39A680"/>
</linearGradient>
</defs>
</svg>
