<svg width="33" height="32" viewBox="0 0 33 32" fill="none" xmlns="http://www.w3.org/2000/svg">
<path opacity="0.3" fill-rule="evenodd" clip-rule="evenodd" d="M5.84685 4.90775C5.31338 4.7648 4.76504 5.08139 4.6221 5.61485L0.998635 19.1378C0.855693 19.6713 1.17227 20.2196 1.70574 20.3626L26.8198 27.0919C27.3533 27.2348 27.9016 26.9182 28.0446 26.3847L31.668 12.8618C31.811 12.3283 31.4944 11.78 30.9609 11.637L5.84685 4.90775ZM21.485 17.3794C20.7226 20.2246 17.7981 21.913 14.953 21.1507C12.1078 20.3883 10.4194 17.4639 11.1817 14.6187C11.9441 11.7736 14.8686 10.0851 17.7137 10.8475C20.5589 11.6098 22.2473 14.5343 21.485 17.3794Z" fill="#6D7471"/>
<path fill-rule="evenodd" clip-rule="evenodd" d="M3.33331 8C2.78103 8 2.33331 8.44772 2.33331 9V23C2.33331 23.5523 2.78103 24 3.33331 24H29.3333C29.8856 24 30.3333 23.5523 30.3333 23V9C30.3333 8.44772 29.8856 8 29.3333 8H3.33331ZM21.6666 15.9995C21.6666 18.945 19.2788 21.3329 16.3333 21.3329C13.3878 21.3329 10.9999 18.945 10.9999 15.9995C10.9999 13.054 13.3878 10.6662 16.3333 10.6662C19.2788 10.6662 21.6666 13.054 21.6666 15.9995ZM16.3333 18.6671C17.8061 18.6671 19 17.4732 19 16.0005C19 14.5277 17.8061 13.3338 16.3333 13.3338C14.8606 13.3338 13.6667 14.5277 13.6667 16.0005C13.6667 17.4732 14.8606 18.6671 16.3333 18.6671Z" fill="#6D7471"/>
</svg>
