<svg width="33" height="32" viewBox="0 0 33 32" fill="none" xmlns="http://www.w3.org/2000/svg">
<path opacity="0.3" fill-rule="evenodd" clip-rule="evenodd" d="M5.84679 4.90726C5.31332 4.76432 4.76498 5.0809 4.62204 5.61436L0.998574 19.1373C0.855632 19.6708 1.17221 20.2191 1.70568 20.3621L26.8198 27.0914C27.3532 27.2343 27.9016 26.9177 28.0445 26.3843L31.668 12.8613C31.8109 12.3278 31.4943 11.7795 30.9609 11.6366L5.84679 4.90726ZM21.4849 17.3772C20.7225 20.2223 17.798 21.9108 14.9529 21.1484C12.1077 20.3861 10.4193 17.4616 11.1816 14.6164C11.944 11.7713 14.8685 10.0829 17.7136 10.8452C20.5588 11.6076 22.2472 14.532 21.4849 17.3772Z" fill="#49B58F"/>
<path fill-rule="evenodd" clip-rule="evenodd" d="M3.33334 8C2.78106 8 2.33334 8.44772 2.33334 9V23C2.33334 23.5523 2.78106 24 3.33334 24H29.3333C29.8856 24 30.3333 23.5523 30.3333 23V9C30.3333 8.44772 29.8856 8 29.3333 8H3.33334ZM21.6668 16.0013C21.6668 18.9468 19.2789 21.3346 16.3334 21.3346C13.3879 21.3346 11.0001 18.9468 11.0001 16.0013C11.0001 13.0558 13.3879 10.668 16.3334 10.668C19.2789 10.668 21.6668 13.0558 21.6668 16.0013ZM16.3333 18.6654C17.806 18.6654 18.9999 17.4715 18.9999 15.9987C18.9999 14.5259 17.806 13.332 16.3333 13.332C14.8605 13.332 13.6666 14.5259 13.6666 15.9987C13.6666 17.4715 14.8605 18.6654 16.3333 18.6654Z" fill="#49B58F"/>
</svg>
