<svg width="32" height="32" viewBox="0 0 32 32" fill="none" xmlns="http://www.w3.org/2000/svg">
<path fill-rule="evenodd" clip-rule="evenodd" d="M4.9571 11.4149C4.36259 11.7782 4 12.4247 4 13.1214V25.9998C4 27.1043 4.89543 27.9998 6 27.9998H26C27.1046 27.9998 28 27.1043 28 25.9998V13.1214C28 12.4247 27.6374 11.7782 27.0429 11.4149L16.5214 4.9851C16.2013 4.78947 15.7987 4.78947 15.4785 4.9851L4.9571 11.4149ZM13 17.3331C12.4477 17.3331 12 17.7808 12 18.3331V22.9998C12 23.5521 12.4477 23.9998 13 23.9998H19C19.5523 23.9998 20 23.5521 20 22.9998V18.3331C20 17.7808 19.5523 17.3331 19 17.3331H13Z" fill="url(#paint0_linear_825_3091)"/>
<defs>
<linearGradient id="paint0_linear_825_3091" x1="16" y1="3.46245" x2="37.2462" y2="12.4874" gradientUnits="userSpaceOnUse">
<stop stop-color="#63CDA8"/>
<stop offset="1" stop-color="#39A680"/>
</linearGradient>
</defs>
</svg>
