<svg width="32" height="32" viewBox="0 0 32 32" fill="none" xmlns="http://www.w3.org/2000/svg">
<path fill-rule="evenodd" clip-rule="evenodd" d="M4.9571 11.4173C4.36259 11.7806 4 12.4271 4 13.1239V26.0022C4 27.1068 4.89543 28.0022 6 28.0022H26C27.1046 28.0022 28 27.1068 28 26.0022V13.1239C28 12.4271 27.6374 11.7806 27.0429 11.4173L16.5214 4.98754C16.2013 4.79191 15.7987 4.79191 15.4785 4.98754L4.9571 11.4173ZM13 17.3356C12.4477 17.3356 12 17.7833 12 18.3356V23.0023C12 23.5546 12.4477 24.0023 13 24.0023H19C19.5523 24.0023 20 23.5546 20 23.0023V18.3356C20 17.7834 19.5523 17.3356 19 17.3356H13Z" fill="#6D7471"/>
</svg>
