<svg width="32" height="32" viewBox="0 0 32 32" fill="none" xmlns="http://www.w3.org/2000/svg">
<path opacity="0.3" d="M16 14.6667C13.0545 14.6667 10.6667 12.2789 10.6667 9.33333C10.6667 6.38781 13.0545 4 16 4C18.9455 4 21.3334 6.38781 21.3334 9.33333C21.3334 12.2789 18.9455 14.6667 16 14.6667Z" fill="#6D7471"/>
<path d="M4.00087 26.9319C4.51768 20.5684 9.68255 17.333 15.9778 17.333C22.3616 17.333 27.6065 20.3906 27.9972 26.933C28.0128 27.1936 27.9972 27.9997 26.9956 27.9997C22.0548 27.9997 14.713 27.9997 4.97 27.9997C4.63562 27.9997 3.97272 27.2786 4.00087 26.9319Z" fill="#6D7471"/>
</svg>
