<svg width="67" height="67" viewBox="0 0 67 67" fill="none" xmlns="http://www.w3.org/2000/svg">
<circle opacity="0.15" cx="33.5" cy="33.5" r="33.5" fill="#B5BAB9"/>
<path d="M36.9125 34.791L32.6692 39.0343L30.5475 36.9127" stroke="#6D7471" stroke-width="2" stroke-linecap="round" stroke-linejoin="round"/>
<path d="M40.095 43.2776H27.365C26.7792 43.2776 26.3042 42.8027 26.3042 42.2168L26.3042 25.2435C26.3042 24.6576 26.7792 24.1826 27.365 24.1826L35.3882 24.1826C35.6837 24.1826 35.9658 24.3059 36.1666 24.5227L40.8734 29.6061C41.055 29.8022 41.1559 30.0596 41.1559 30.3268L41.1559 42.2168C41.1559 42.8027 40.6809 43.2776 40.095 43.2776Z" stroke="#6D7471" stroke-width="2" stroke-linecap="round" stroke-linejoin="round"/>
<path d="M41.1558 30.5476L35.8516 30.5476C35.2657 30.5476 34.7908 30.0727 34.7908 29.4868L34.7908 24.1826" stroke="#6D7471" stroke-width="2" stroke-linecap="round" stroke-linejoin="round"/>
</svg>
