<svg width="67" height="67" viewBox="0 0 67 67" fill="none" xmlns="http://www.w3.org/2000/svg">
<circle opacity="0.15" cx="33.5" cy="33.5" r="33.5" fill="#B5BAB9"/>
<g clip-path="url(#clip0_836_1029)">
<path d="M27.8418 24.4476C29.0135 24.4476 29.9634 23.4977 29.9634 22.3259L27.8418 22.8916L25.7201 22.3259C25.7201 23.4977 26.67 24.4476 27.8418 24.4476Z" fill="#6D7471"/>
<path d="M33.4985 24.4476C34.6702 24.4476 35.6202 23.4977 35.6202 22.3259L33.4985 22.8916L31.3768 22.3259C31.3768 23.4977 32.3267 24.4476 33.4985 24.4476Z" fill="#6D7471"/>
<path d="M39.1555 24.4476C40.3273 24.4476 41.2773 23.4977 41.2773 22.3259L39.1555 22.8916L37.0339 22.3259C37.0339 23.4977 37.9838 24.4476 39.1555 24.4476Z" fill="#6D7471"/>
<path d="M39.1579 42.6938C37.9862 42.6938 37.0363 43.6438 37.0363 44.8155L39.1579 44.2499L41.2796 44.8155C41.2796 43.6438 40.3297 42.6938 39.1579 42.6938Z" fill="#6D7471"/>
<path d="M33.5003 42.6938C32.3285 42.6938 31.3786 43.6438 31.3786 44.8155L33.5003 44.2499L35.6219 44.8155C35.6219 43.6438 34.672 42.6938 33.5003 42.6938Z" fill="#6D7471"/>
<path d="M27.8386 42.6938C26.6668 42.6938 25.7169 43.6438 25.7169 44.8155L27.8386 44.2499L29.9603 44.8155C29.9603 43.6438 29.0104 42.6938 27.8386 42.6938Z" fill="#6D7471"/>
<path fill-rule="evenodd" clip-rule="evenodd" d="M37.0573 20.77H35.6022C35.4626 21.8066 34.5744 22.6057 33.4996 22.6057C32.4248 22.6057 31.5367 21.8066 31.3971 20.77H29.9447C29.8052 21.8067 28.917 22.606 27.8421 22.606C26.7673 22.606 25.8791 21.8067 25.7395 20.77H23.45C21.9699 20.77 20.77 21.9699 20.77 23.45V43.55C20.77 45.0302 21.9699 46.23 23.45 46.23H26.0466C26.4224 45.6347 27.0861 45.2392 27.8421 45.2392C28.5982 45.2392 29.2619 45.6347 29.6376 46.23H31.704C32.0798 45.6345 32.7435 45.239 33.4996 45.239C34.2558 45.239 34.9195 45.6345 35.2952 46.23H37.3642C37.7399 45.6345 38.4037 45.239 39.1598 45.239C39.9159 45.239 40.5798 45.6345 40.9555 46.23H43.55C45.0302 46.23 46.23 45.0302 46.23 43.55V23.45C46.23 21.9699 45.0302 20.77 43.55 20.77H41.2624C41.1227 21.8066 40.2346 22.6057 39.1598 22.6057C38.0851 22.6057 37.1969 21.8066 37.0573 20.77ZM43.55 23.45H23.45V43.55H43.55V23.45Z" fill="#6D7471"/>
<g clip-path="url(#clip1_836_1029)">
<path d="M32.6625 36.7663C34.929 36.7663 36.7663 34.929 36.7663 32.6626C36.7663 30.3961 34.929 28.5588 32.6625 28.5588C30.3961 28.5588 28.5588 30.3961 28.5588 32.6626C28.5588 34.929 30.3961 36.7663 32.6625 36.7663Z" stroke="#6D7471" stroke-width="3" stroke-linecap="round" stroke-linejoin="round"/>
<path d="M35.5938 35.5938L39.1113 39.1113" stroke="#6D7471" stroke-width="3" stroke-linecap="round" stroke-linejoin="round"/>
</g>
</g>
<defs>
<clipPath id="clip0_836_1029">
<rect width="25.46" height="25.46" fill="white" transform="translate(20.77 20.77)"/>
</clipPath>
<clipPath id="clip1_836_1029">
<rect width="14.07" height="14.07" fill="white" transform="translate(26.8 26.8)"/>
</clipPath>
</defs>
</svg>
