<svg width="67" height="67" viewBox="0 0 67 67" fill="none" xmlns="http://www.w3.org/2000/svg">
<circle opacity="0.15" cx="33.5" cy="33.5" r="33.5" fill="#B5BAB9"/>
<path d="M41.75 44.375H27.25C26.5827 44.375 26.0417 43.834 26.0417 43.1667L26.0417 23.8333C26.0417 23.166 26.5827 22.625 27.25 22.625L36.3888 22.625C36.7253 22.625 37.0467 22.7654 37.2754 23.0124L42.6367 28.8026C42.8435 29.0259 42.9584 29.3191 42.9584 29.6235L42.9584 43.1667C42.9584 43.834 42.4174 44.375 41.75 44.375Z" stroke="#6D7471" stroke-width="2" stroke-linecap="round" stroke-linejoin="round"/>
<path d="M36.1219 38.7471L38.1249 40.75" stroke="#6D7471" stroke-width="2" stroke-linecap="round" stroke-linejoin="round"/>
<path d="M33.8958 39.5417C35.5642 39.5417 36.9167 38.1892 36.9167 36.5208C36.9167 34.8525 35.5642 33.5 33.8958 33.5C32.2275 33.5 30.875 34.8525 30.875 36.5208C30.875 38.1892 32.2275 39.5417 33.8958 39.5417Z" stroke="#6D7471" stroke-width="2" stroke-linecap="round" stroke-linejoin="round"/>
<path d="M42.9583 29.875L36.9166 29.875C36.2493 29.875 35.7083 29.334 35.7083 28.6667L35.7083 22.625" stroke="#6D7471" stroke-width="2" stroke-linecap="round" stroke-linejoin="round"/>
</svg>
